# xmcd CD database file
#
# Track frame offsets:
#	150
#	20135
#	42632
#	62017
#	83216
#	104103
#	125230
#	144701
#	161127
#	180383
#	207123
#	222293
#	248251
#	265524
#	288707
#
# Disc length: 4149 seconds
#
# Revision: 0
# Processed by: cddbd v1.5.1PL0 Copyright (c) Steve Scherf et al.
# Submitted via: CDex 1.50
#
DISCID=e810330f
DTITLE=Art Pepper - Mosaic Select 15 Disc 1
DYEAR=1900
DGENRE=Jazz
TTITLE0=Pepper Returns
TTITLE1=Broadway
TTITLE2=You Go To My Head
TTITLE3=Angel Wings
TTITLE4=Funny Blues 
TTITLE5=Five More
TTITLE6=Minority
TTITLE7=Patricia
TTITLE8=Mambo De La Pinta
TTITLE9=Walkin' Out Blues
TTITLE10=Straight Life
TTITLE11=Yardbird Suite
TTITLE12=Pepper Steak
TTITLE13=You're Driving Me Crazy
TTITLE14=Tenor Blooz
EXTD=
EXTT0=
EXTT1=
EXTT2=
EXTT3=
EXTT4=
EXTT5=
EXTT6=
EXTT7=
EXTT8=
EXTT9=
EXTT10=
EXTT11=
EXTT12=
EXTT13=
EXTT14=
PLAYORDER=
